<svg xmlns="http://www.w3.org/2000/svg" xmlns:xlink="http://www.w3.org/1999/xlink" viewBox="0 0 148.16672 163.73666"><defs><style>.cls-1{isolation:isolate;}.cls-2{fill:url(#Dégradé_sans_nom_2);}.cls-3{fill:#fff;}.cls-4{opacity:0.6;mix-blend-mode:multiply;fill:url(#Dégradé_sans_nom_9);}.cls-5{fill:url(#Dégradé_sans_nom_2-2);}</style><linearGradient id="Dégradé_sans_nom_2" x1="53.2539" y1="106.25013" x2="149.09719" y2="50.91498" gradientUnits="userSpaceOnUse"><stop offset="0" stop-color="#651fff"/><stop offset="1" stop-color="#c50eff"/></linearGradient><linearGradient id="Dégradé_sans_nom_9" x1="77.96418" y1="19.28053" x2="105.83478" y2="47.15112" gradientUnits="userSpaceOnUse"><stop offset="0"/><stop offset="0.62259" stop-color="#fff"/></linearGradient><linearGradient id="Dégradé_sans_nom_2-2" x1="2.46027" y1="52.83505" x2="78.77112" y2="96.89314" xlink:href="#Dégradé_sans_nom_2"/></defs><title>Logo Raphy - Fond sombre</title><g class="cls-1"><g id="Calque_2" data-name="Calque 2"><path class="cls-2" d="M97.1126,165.88053H95.94267a14.30394,14.30394,0,0,1-14.30394-14.30394V101.27275a6.99889,6.99889,0,0,1,6.99969-6.99889l14.86682.00169c.11231-.00879,14.3628.06738,22.99951-8.46924,4.65088-4.59668,6.91163-10.894,6.91163-19.25244,0-8.35205-2.29053-14.68213-7.00293-19.35205-8.74219-8.66308-23.14258-8.81836-23.42286-8.81836h-.00293l-44.12677.00035c-7.85479.00008-7.22235-6.36746-7.22235-14.22225V22.82833A1.44438,1.44438,0,0,1,53.08292,21.384h49.8276c.80908-.00928,21.56543-.03613,35.46923,13.74316,7.98682,7.91455,12.03663,18.48829,12.03663,31.42676,0,13.0249-4.0669,23.61231-12.08741,31.46778-13.42138,13.145-33.14111,13.27929-35.05371,13.252h-3.08142a1.55511,1.55511,0,0,0-1.55511,1.55511V164.3544A1.52613,1.52613,0,0,1,97.1126,165.88053Z" transform="translate(-2.24966 -2.14387)"/><path class="cls-3" d="M52.44386,58.45087a9.08334,9.08334,0,0,1,9.08335,9.08334c0,5.0166-4.06675,6.66912-9.08335,6.66912s-9.08334-1.65252-9.08334-6.66912A9.08334,9.08334,0,0,1,52.44386,58.45087Z" transform="translate(-2.24966 -2.14387)"/><path class="cls-3" d="M101.44417,74.20333c-5.01659,0-9.08334-1.65252-9.08334-6.66912a9.08335,9.08335,0,0,1,18.16669,0C110.52752,72.55081,106.46077,74.20333,101.44417,74.20333Z" transform="translate(-2.24966 -2.14387)"/><path class="cls-4" d="M121.26037,24.72091a59.04948,59.04948,0,0,0-18.34985-3.337H95.08318L58.86089,38.38381l44.12677-.00035h.00293a40.74554,40.74554,0,0,1,7.24265.87361C115.16317,40.27228,126.81621,26.67366,121.26037,24.72091Z" transform="translate(-2.24966 -2.14387)"/><path class="cls-5" d="M97.36605,3.64837l-.78924-.961A1.48768,1.48768,0,0,0,94.48293,2.482L80.67165,13.8258a33.40215,33.40215,0,0,1-21.15136,7.57178H58.43923l-4.64062-.01368H49.75552c-.80909-.00927-21.56543-.03613-35.46924,13.74317C6.29946,43.04162,2.24966,53.61535,2.24966,66.55383c0,13.0249,4.06689,23.6123,12.0874,31.46777,13.32593,13.05157,32.85205,13.27655,35.00122,13.25232L14.40975,162.41857a1.53667,1.53667,0,0,0,1.269,2.40332h9.1662a17.314,17.314,0,0,0,14.29792-7.54956l30.69592-44.94714a6.8673,6.8673,0,0,0,1.19635-3.87293v-7.09179A7.08546,7.08546,0,0,0,63.94949,94.275l-14.7887.00049c-.1123-.00879-14.36279.06738-22.99951-8.46924-4.65088-4.59668-6.91162-10.894-6.91162-19.25244,0-8.35205,2.29052-14.68213,7.00293-19.35205,8.74218-8.66309,23.14258-8.81836,23.42285-8.81836h.00293l4.07922.00018v.0003l4.64063.01368h1.12207a50.32516,50.32516,0,0,0,31.94165-11.4361l3.934-3.23108A14.26854,14.26854,0,0,0,97.36605,3.64837Z" transform="translate(-2.24966 -2.14387)"/></g></g></svg>